<svg xmlns="http://www.w3.org/2000/svg" version="1.1" xmlns:xlink="http://www.w3.org/1999/xlink" xmlns:svgjs="http://svgjs.dev/svgjs" width="128" height="128" viewBox="0 0 128 128"><g transform="matrix(0.8046875,0,0,0.8046875,12.529344520834016,8.357379810855264)"><svg viewBox="0 0 87 95" data-background-color="#000000" preserveAspectRatio="xMidYMid meet" height="139" width="128" xmlns="http://www.w3.org/2000/svg" xmlns:xlink="http://www.w3.org/1999/xlink"><g id="tight-bounds" transform="matrix(1,0,0,1,-0.02478614866562623,-0.24049999999999727)"><svg viewBox="0 0 87.04957229733125 95.481" height="95.481" width="87.04957229733125"><g><svg viewBox="0 0 87.04957229733125 95.481" height="95.481" width="87.04957229733125"><g><svg viewBox="0 0 87.04957229733125 95.481" height="95.481" width="87.04957229733125"><g id="textblocktransform"><svg viewBox="0 0 87.04957229733125 95.481" height="95.481" width="87.04957229733125" id="textblock"><g><svg viewBox="0 0 87.04957229733125 95.481" height="95.481" width="87.04957229733125"><g><svg viewBox="0 0 87.04957229733125 95.481" height="95.481" width="87.04957229733125"><g><svg xmlns="http://www.w3.org/2000/svg" xmlns:xlink="http://www.w3.org/1999/xlink" version="1.1" x="0" y="0" viewBox="13.720000000000002 10.205999999999996 72.56 79.588" enable-background="new 0 0 100 100" xml:space="preserve" height="95.481" width="87.04957229733125" class="icon-icon-0" data-fill-palette-color="accent" id="icon-0"></svg></g></svg></g></svg></g></svg></g></svg></g></svg></g><defs></defs><mask id="bb1c6ebe-f202-435e-a7b7-931b9634cc19"><g id="SvgjsG1027"><svg viewBox="0 0 87.04957229733125 95.481" height="95.481" width="87.04957229733125"><g><svg viewBox="0 0 87.04957229733125 95.481" height="95.481" width="87.04957229733125"><g><svg viewBox="0 0 87.04957229733125 95.481" height="95.481" width="87.04957229733125"><g id="SvgjsG1026"><svg viewBox="0 0 87.04957229733125 95.481" height="95.481" width="87.04957229733125" id="SvgjsSvg1025"><g><svg viewBox="0 0 87.04957229733125 95.481" height="95.481" width="87.04957229733125"><g><svg viewBox="0 0 87.04957229733125 95.481" height="95.481" width="87.04957229733125"><g><svg xmlns="http://www.w3.org/2000/svg" xmlns:xlink="http://www.w3.org/1999/xlink" version="1.1" x="0" y="0" viewBox="13.720000000000002 10.205999999999996 72.56 79.588" enable-background="new 0 0 100 100" xml:space="preserve" height="95.481" width="87.04957229733125" class="icon-icon-0" data-fill-palette-color="accent" id="SvgjsSvg1024"><g fill="white"><path d="M42.161 67.091c-15.683 0-28.441-12.761-28.441-28.443 0-15.683 12.758-28.442 28.441-28.442 8 0 15.674 3.398 21.056 9.323 1.648 1.813 1.514 4.619-0.301 6.266-1.812 1.646-4.619 1.513-6.268-0.301-3.703-4.077-8.984-6.416-14.488-6.416-10.79 0-19.568 8.779-19.568 19.569 0 10.792 8.778 19.57 19.568 19.57 5.504 0 10.785-2.338 14.488-6.415 1.648-1.814 4.455-1.949 6.268-0.301 1.814 1.647 1.949 4.452 0.301 6.268C57.836 63.692 50.161 67.091 42.161 67.091z" fill="white"></path></g><g fill="white"><path d="M57.838 89.794c-7.999 0-15.674-3.397-21.056-9.323-1.647-1.812-1.513-4.619 0.301-6.267 1.812-1.648 4.619-1.513 6.266 0.3 3.704 4.08 8.985 6.417 14.489 6.417 10.792 0 19.569-8.778 19.569-19.568 0-10.791-8.777-19.57-19.569-19.57-5.504 0-10.785 2.339-14.489 6.416-1.647 1.813-4.453 1.949-6.266 0.301-1.814-1.647-1.948-4.453-0.301-6.267 5.382-5.925 13.057-9.322 21.056-9.322 15.684 0 28.442 12.759 28.442 28.442C86.28 77.035 73.521 89.794 57.838 89.794z" fill="white"></path></g></svg></g></svg></g></svg></g></svg></g></svg></g></svg></g><defs><mask></mask></defs></svg><rect width="87.04957229733125" height="95.481" fill="black" stroke="none" visibility="hidden"></rect></g></mask><linearGradient x1="0" x2="1" y1="0.578" y2="0.595" id="c7a2e477-55b5-48d9-863d-8338fd0a05be"><stop stop-color="#6ee2f5" offset="0"></stop><stop stop-color="#6454f0" offset="1"></stop></linearGradient><rect width="87.04957229733125" height="95.481" fill="url(#c7a2e477-55b5-48d9-863d-8338fd0a05be)" mask="url(#bb1c6ebe-f202-435e-a7b7-931b9634cc19)" data-fill-palette-color="accent"></rect></svg><rect width="87.04957229733125" height="95.481" fill="none" stroke="none" visibility="hidden"></rect></g></svg></g></svg>